<svg width="84" height="70" viewBox="0 0 84 70" fill="none" xmlns="http://www.w3.org/2000/svg">
<path d="M73.3656 22.0056H68.5086V19.4774C68.5086 18.5071 68.1261 17.5765 67.4454 16.8904C66.7646 16.2042 65.8412 15.8188 64.8785 15.8188C63.9157 15.8188 62.9924 16.2042 62.3116 16.8904C61.6308 17.5765 61.2484 18.5071 61.2484 19.4774V22.0056H56.3914V19.4774C56.3914 17.2086 57.2856 15.0327 58.8774 13.4284C60.4692 11.8241 62.6281 10.9229 64.8792 10.9229C67.1303 10.9229 69.2892 11.8241 70.881 13.4284C72.4727 15.0327 73.367 17.2086 73.367 19.4774L73.3656 22.0056Z" fill="white"/>
<path d="M75.3591 22.0031H54.3977C54.1821 22.0002 53.9681 22.0409 53.7684 22.1228C53.5686 22.2046 53.3871 22.3259 53.2347 22.4796C53.0822 22.6333 52.9618 22.8162 52.8806 23.0175C52.7994 23.2188 52.759 23.4345 52.7619 23.6518V39.265C52.759 39.4823 52.7994 39.6979 52.8806 39.8992C52.9618 40.1006 53.0822 40.2834 53.2347 40.4371C53.3871 40.5908 53.5686 40.7121 53.7684 40.794C53.9681 40.8758 54.1821 40.9165 54.3977 40.9137H75.3591C75.5747 40.9165 75.7887 40.8758 75.9884 40.794C76.1882 40.7121 76.3696 40.5908 76.5221 40.4371C76.6746 40.2834 76.795 40.1006 76.8762 39.8992C76.9574 39.6979 76.9978 39.4823 76.9949 39.265V23.6518C76.9829 23.2183 76.8067 22.806 76.5025 22.4994C76.1983 22.1928 75.7891 22.0152 75.3591 22.0031ZM65.9004 32.2573V34.3698C65.9004 34.6568 65.7873 34.9321 65.5859 35.1351C65.3845 35.3381 65.1113 35.4521 64.8265 35.4521C64.5417 35.4521 64.2685 35.3381 64.0671 35.1351C63.8657 34.9321 63.7525 34.6568 63.7525 34.3698V32.2573C63.4184 32.0681 63.1419 31.7907 62.9527 31.4548C62.7636 31.1189 62.669 30.7373 62.6793 30.3512C62.6936 29.7868 62.9261 29.2504 63.3272 28.8564C63.7283 28.4623 64.2663 28.2417 64.8265 28.2417C65.3866 28.2417 65.9246 28.4623 66.3258 28.8564C66.7269 29.2504 66.9594 29.7868 66.9737 30.3512C66.9944 30.7391 66.9044 31.1249 66.7141 31.4627C66.5239 31.8005 66.2415 32.0763 65.9004 32.2573Z" fill="white"/>
<path d="M52.2512 19.684H47.1894C46.7961 19.684 46.4189 19.5265 46.1408 19.2462C45.8627 18.9659 45.7064 18.5858 45.7064 18.1894C45.7064 17.793 45.8627 17.4129 46.1408 17.1326C46.4189 16.8523 46.7961 16.6948 47.1894 16.6948H52.2512C52.6445 16.6948 53.0217 16.8523 53.2998 17.1326C53.5779 17.4129 53.7342 17.793 53.7342 18.1894C53.7342 18.5858 53.5779 18.9659 53.2998 19.2462C53.0217 19.5265 52.6445 19.684 52.2512 19.684Z" fill="white"/>
<path d="M55.8302 11.6458C55.4885 11.651 55.1584 11.5217 54.9099 11.2853L50.9227 7.98786C50.6319 7.73072 50.4518 7.36966 50.4203 6.98106C50.3889 6.59245 50.5087 6.20676 50.7543 5.90556C51 5.60435 51.3522 5.41125 51.7366 5.36709C52.1209 5.32293 52.5073 5.43117 52.8139 5.66893L56.8011 8.96633C57.1 9.22316 57.2884 9.58687 57.3266 9.9809C57.3648 10.3749 57.2498 10.7685 57.0059 11.0788C56.8565 11.2466 56.6758 11.3831 56.4741 11.4804C56.2723 11.5777 56.0535 11.6339 55.8302 11.6458Z" fill="white"/>
<path d="M64.8749 8.1417C64.4817 8.14133 64.1047 7.98374 63.8267 7.70354C63.5487 7.42333 63.3923 7.0434 63.392 6.64713V1.49458C63.392 1.09819 63.5482 0.71804 63.8263 0.437752C64.1044 0.157464 64.4816 0 64.8749 0C65.2682 0 65.6454 0.157464 65.9235 0.437752C66.2016 0.71804 66.3578 1.09819 66.3578 1.49458V6.64713C66.3574 7.0434 66.2011 7.42333 65.923 7.70354C65.645 7.98374 65.2681 8.14133 64.8749 8.1417Z" fill="white"/>
<path d="M73.8763 11.6457C73.6588 11.6438 73.4447 11.5918 73.2502 11.4938C73.0557 11.3958 72.8859 11.2543 72.7539 11.0801C72.511 10.7694 72.3967 10.3761 72.4348 9.98237C72.473 9.58865 72.6607 9.22506 72.9587 8.96764L76.9459 5.67023C77.096 5.5375 77.2711 5.43652 77.4607 5.37332C77.6503 5.31012 77.8505 5.28598 78.0496 5.30233C78.2486 5.31868 78.4424 5.37518 78.6193 5.46849C78.7962 5.5618 78.9528 5.69001 79.0796 5.8455C79.2064 6.00098 79.3009 6.18057 79.3574 6.37359C79.414 6.56661 79.4315 6.76912 79.4089 6.9691C79.3863 7.16907 79.324 7.36242 79.2258 7.53765C79.1275 7.71289 78.9954 7.86643 78.8371 7.98916L74.8499 11.2866C74.5812 11.5245 74.2339 11.6526 73.8763 11.6457Z" fill="white"/>
<path d="M82.517 19.684H77.4047C77.2099 19.684 77.0171 19.6453 76.8372 19.5702C76.6573 19.4951 76.4938 19.385 76.3561 19.2462C76.2184 19.1074 76.1092 18.9427 76.0346 18.7614C75.9601 18.58 75.9218 18.3857 75.9218 18.1894C75.9218 17.9931 75.9601 17.7988 76.0346 17.6175C76.1092 17.4361 76.2184 17.2714 76.3561 17.1326C76.4938 16.9938 76.6573 16.8837 76.8372 16.8086C77.0171 16.7335 77.2099 16.6948 77.4047 16.6948H82.517C82.9103 16.6948 83.2875 16.8523 83.5656 17.1326C83.8437 17.4129 83.9999 17.793 83.9999 18.1894C83.9999 18.5858 83.8437 18.9659 83.5656 19.2462C83.2875 19.5265 82.9103 19.684 82.517 19.684Z" fill="white"/>
<path d="M0 44.9574V28.3134H3.98717V41.4535H10.379V44.9574H0ZM23.5695 39.2378V40.1654H15.1336C15.1815 40.4742 15.2857 40.7714 15.4408 41.0421C15.5891 41.3116 15.7994 41.5414 16.0539 41.7123C16.3149 41.9167 16.6092 42.0736 16.9237 42.1761C17.2376 42.2774 17.565 42.3294 17.8946 42.3302C18.3876 42.3439 18.8767 42.2387 19.3213 42.0235C19.7659 41.8084 20.1531 41.4893 20.4507 41.093L23.1093 42.7898C22.5577 43.5787 21.8194 44.2164 20.9614 44.6449C19.9828 45.0949 18.9183 45.3237 17.8427 45.3151C17.008 45.3122 16.1793 45.1727 15.3889 44.9023C14.6381 44.6423 13.9431 44.2411 13.3406 43.7202C12.7207 43.1348 12.2314 42.4231 11.9054 41.6325C11.5793 40.8419 11.4239 39.9904 11.4494 39.1346C11.4255 38.2481 11.6001 37.3676 11.9601 36.5583C12.2506 35.8128 12.7048 35.1433 13.2887 34.6C13.8608 34.0526 14.5398 33.6312 15.2823 33.3627C16.0631 33.0509 16.8962 32.8934 17.736 32.899C18.5377 32.8974 19.3335 33.0371 20.0874 33.3119C20.774 33.6015 21.3989 34.0215 21.928 34.5491C22.4552 35.1285 22.8557 35.813 23.1037 36.5583C23.4197 37.4154 23.5775 38.3235 23.5695 39.2378ZM20.0425 37.7956C20.0442 37.2136 19.8459 36.649 19.4813 36.1978C19.2619 35.9592 18.9911 35.7747 18.6897 35.6585C18.3883 35.5423 18.0644 35.4975 17.743 35.5276C17.3962 35.5244 17.051 35.5764 16.7203 35.6817C16.4219 35.7848 16.1448 35.942 15.9024 36.1455C15.6729 36.349 15.4827 36.5935 15.3412 36.8666C15.2028 37.1403 15.1162 37.4376 15.0859 37.7433H20.0453L20.0425 37.7956ZM29.706 36.1469V40.6292C29.6701 41.0645 29.7782 41.4995 30.0132 41.8664C30.1566 42.017 30.3323 42.1325 30.5269 42.2041C30.7214 42.2757 30.9296 42.3014 31.1356 42.2793C31.3412 42.288 31.5472 42.2709 31.7486 42.2284C31.9229 42.1916 32.0937 42.14 32.2593 42.0743L32.3098 44.9023C31.9737 45.0064 31.6323 45.0923 31.2871 45.1596C30.8804 45.2196 30.4704 45.254 30.0595 45.2628C29.3984 45.2818 28.7395 45.1768 28.1164 44.9531C27.6317 44.784 27.1937 44.5015 26.8383 44.1288C26.5078 43.7464 26.279 43.2856 26.1733 42.7898C26.0489 42.2325 25.9803 41.6641 25.9685 41.093V36.1441H24.0802V33.2609H25.9208V30.1756H29.7088V33.268H32.4207V36.1539L29.706 36.1469ZM35.9435 28.0052C35.6848 27.9942 35.4265 28.0349 35.1835 28.1248C34.9405 28.2148 34.7175 28.3523 34.5274 28.5295C34.3373 28.7066 34.1838 28.9199 34.0758 29.157C33.9678 29.3941 33.9073 29.6505 33.898 29.9112C33.8855 30.1624 33.9262 30.4134 34.0175 30.6475C34.1087 30.8816 34.2483 31.0935 34.4271 31.269C34.6059 31.4445 34.8197 31.5796 35.0543 31.6654C35.2889 31.7511 35.5389 31.7855 35.7877 31.7664C35.8761 31.78 35.9665 31.7619 36.0431 31.7155C35.9311 32.1141 35.7077 32.4718 35.3994 32.7458C35.0912 33.0199 34.7112 33.1987 34.3048 33.2609H34.1519V35.0638H34.3567C35.2728 34.9578 36.1319 34.5617 36.8105 33.9326C37.2589 33.4719 37.6083 32.923 37.8368 32.3201C38.0654 31.7173 38.1683 31.0734 38.1391 30.4287C38.1621 30.1221 38.1226 29.814 38.023 29.5233C37.9234 29.2326 37.7659 28.9656 37.5601 28.7385C37.3543 28.5115 37.1046 28.3293 36.8263 28.2032C36.5481 28.0771 36.2471 28.0097 35.9421 28.0052H35.9435ZM44.782 36.7139C44.4681 36.3993 44.1056 36.1381 43.7088 35.9404C43.2956 35.7352 42.8408 35.6292 42.3802 35.6308C42.0448 35.6195 41.7116 35.6903 41.4093 35.8372C41.2669 35.8931 41.1457 35.9929 41.0631 36.1225C40.9804 36.252 40.9405 36.4046 40.9492 36.5583C40.9476 36.7175 40.9962 36.8731 41.088 37.0027C41.1798 37.1323 41.31 37.2292 41.4598 37.2795C41.9883 37.4891 42.5363 37.6444 43.0957 37.7433C43.5517 37.8335 43.997 37.9719 44.4243 38.1561C44.8384 38.3373 45.2325 38.5619 45.5999 38.8264C45.9681 39.0943 46.2665 39.4479 46.4698 39.8572C46.6844 40.3065 46.7898 40.8009 46.777 41.2994C46.7956 41.9487 46.6364 42.5905 46.3168 43.1546C46.0358 43.6611 45.6311 44.0869 45.1412 44.3918C44.6511 44.698 44.116 44.9242 43.5558 45.062C42.9706 45.2068 42.3696 45.2762 41.7671 45.2685C40.8272 45.2738 39.8934 45.117 39.0061 44.8047C38.1654 44.5381 37.3972 44.0794 36.7614 43.4642L38.9093 41.2019C39.2819 41.5796 39.7137 41.893 40.1874 42.1294C40.6794 42.3761 41.2232 42.4998 41.7727 42.49C42.0914 42.4959 42.4069 42.4251 42.693 42.2836C42.8381 42.2163 42.9596 42.1065 43.0417 41.9685C43.1239 41.8305 43.1627 41.6707 43.1532 41.5101C43.1464 41.3333 43.09 41.1621 42.9907 41.0163C42.8914 40.8704 42.7532 40.7558 42.592 40.6858C42.0307 40.4573 41.4485 40.285 40.8538 40.1711C40.438 40.0747 40.0282 39.9544 39.6262 39.8105C39.2364 39.667 38.8735 39.4581 38.5529 39.1926C38.2427 38.9138 37.9831 38.5827 37.7855 38.2141C37.5735 37.7812 37.4659 37.3041 37.4713 36.8213C37.4528 36.1887 37.6123 35.5637 37.9314 35.0185C38.2095 34.5413 38.5937 34.1357 39.0538 33.8336C39.5142 33.507 40.036 33.2789 40.5872 33.1634C41.1367 33.019 41.7029 32.9496 42.2707 32.9569C43.1385 32.9642 44.0003 33.1034 44.8269 33.3698C45.6148 33.6048 46.3342 34.0294 46.9229 34.6071L44.782 36.7139ZM0 64.2285V47.586H11.0959V50.9866H3.83425V54.1299H10.6848V57.3241H3.83425V60.777H11.5027V64.23L0 64.2285ZM21.5759 64.2285V57.8402C21.5671 57.5287 21.5328 57.2184 21.4735 56.9126C21.4275 56.6433 21.3414 56.3826 21.2181 56.1392C21.1028 55.92 20.9249 55.7408 20.7075 55.6245C20.446 55.4659 20.1419 55.3937 19.8376 55.418C19.5179 55.4007 19.1996 55.4721 18.9173 55.6245C18.6619 55.7685 18.4361 55.9605 18.2523 56.1901C18.0855 56.4485 17.9481 56.725 17.8427 57.0144C17.7423 57.3132 17.6906 57.6265 17.6897 57.942V64.2809H13.8555V52.583H17.5368V54.1808H17.5873C17.7288 53.9077 17.919 53.6632 18.1485 53.4597C18.3675 53.2112 18.6271 53.0022 18.9159 52.8417C19.2258 52.6734 19.5509 52.5351 19.8867 52.4289C20.2517 52.3239 20.6296 52.272 21.0091 52.2747C21.6953 52.2665 22.3753 52.4073 23.0027 52.6876C23.5182 52.9468 23.9715 53.3159 24.3313 53.7693C24.6709 54.2305 24.9143 54.7562 25.0468 55.3148C25.1934 55.8868 25.2623 56.4761 25.2516 57.0667V64.278H21.5759V64.2285ZM35.2771 56.2933C35.0444 56.0031 34.7461 55.7732 34.4072 55.6231C34.0532 55.4648 33.672 55.3774 33.2849 55.3657C32.912 55.3655 32.5444 55.4536 32.2116 55.6231C31.8857 55.7709 31.6038 56.0019 31.3937 56.2933C31.1771 56.5833 30.9892 56.894 30.8325 57.2208C30.5611 57.9502 30.5611 58.7539 30.8325 59.4832C30.938 59.8356 31.1312 60.1549 31.3937 60.4108C31.6404 60.7007 31.9462 60.9335 32.2902 61.0936C32.6342 61.2537 33.0084 61.3372 33.3873 61.3384C33.7886 61.3452 34.1876 61.2751 34.563 61.1319C34.9191 60.9871 35.235 60.7571 35.4833 60.4617L37.5793 63.0903C37.0499 63.5798 36.4221 63.9488 35.7386 64.172C34.9646 64.4382 34.1532 64.5776 33.3354 64.5849C32.4669 64.5859 31.6039 64.4465 30.7792 64.172C29.9966 63.9249 29.2799 63.5019 28.6832 62.9347C28.0633 62.3494 27.574 61.6377 27.248 60.8471C26.9219 60.0565 26.7665 59.205 26.792 58.3492C26.7682 57.4627 26.9427 56.5821 27.3027 55.7729C27.6299 55.0346 28.0991 54.369 28.6832 53.8146C29.2853 53.2547 30.0002 52.8327 30.7792 52.5773C31.5987 52.2821 32.4654 52.1421 33.3354 52.1645C33.7463 52.1732 34.1563 52.2077 34.563 52.2677C34.9726 52.3709 35.3809 52.4741 35.7386 52.5773C36.106 52.7278 36.4643 52.8996 36.8119 53.092C37.1159 53.2734 37.3916 53.4993 37.6298 53.7623L35.2771 56.2933ZM46.4221 55.7277C46.2576 55.6688 46.0856 55.6341 45.9114 55.6245H45.4512C45.0121 55.6197 44.5768 55.7074 44.1731 55.8818C43.8599 56.0495 43.5821 56.2772 43.3552 56.552C43.1524 56.8151 42.9967 57.1117 42.895 57.4287C42.7995 57.6932 42.7478 57.9717 42.7421 58.2531V64.23H38.9065V52.5321H42.5878V54.2289H42.6383C42.9213 53.6365 43.3643 53.1367 43.9164 52.7866C44.4782 52.4154 45.1358 52.2188 45.8076 52.221H46.2677C46.4207 52.221 46.5231 52.2719 46.6255 52.2719L46.4221 55.7277ZM55.4205 65.9819C55.1652 66.5998 54.9099 67.1131 54.6531 67.6306C54.3691 68.0876 54.0251 68.5038 53.6304 68.8678C53.2184 69.2046 52.7512 69.4664 52.2499 69.6413C51.6347 69.8166 50.998 69.9032 50.3587 69.8986C49.9839 69.9061 49.609 69.8891 49.2364 69.8477C48.9063 69.8143 48.5808 69.7451 48.2655 69.6413L48.6752 66.3891L49.2883 66.5432C49.4898 66.5857 49.6957 66.6028 49.9014 66.5941C50.1309 66.6143 50.3622 66.5881 50.5816 66.5173C50.801 66.4464 51.0043 66.3321 51.1794 66.1812C51.4922 65.8458 51.7203 65.4394 51.8444 64.9963L52.2022 64.0179L47.3452 52.5264H51.5891L54.1972 60.0502H54.2477L56.5485 52.5264H60.5876L55.4205 65.9819ZM74.5413 58.3563C74.5515 59.1606 74.4306 59.9612 74.1835 60.7261C73.9395 61.4515 73.5768 62.1307 73.1103 62.7354C72.6257 63.3082 72.0353 63.7807 71.372 64.1267C70.6418 64.4895 69.8344 64.6662 69.0207 64.6414C68.3193 64.6339 67.6254 64.4938 66.9752 64.2285C66.3896 63.966 65.8795 63.5584 65.4923 63.0436H65.4418V70.0004H61.6019V52.6862H65.2313V54.1285H65.2818C65.6944 53.6256 66.1975 53.2058 66.7648 52.8912C67.455 52.5236 68.2293 52.346 69.0095 52.3765C69.806 52.3628 70.5944 52.5392 71.3103 52.8912C71.9818 53.201 72.5758 53.6586 73.0486 54.2303C73.5145 54.8166 73.8775 55.4789 74.1218 56.1886C74.4081 56.8739 74.5509 57.6114 74.5413 58.3549V58.3563ZM70.8094 58.3563C70.8088 57.9903 70.7573 57.6262 70.6565 57.2746C70.5488 56.9344 70.3752 56.6192 70.1459 56.347C69.9132 56.0568 69.615 55.8269 69.276 55.6768C68.907 55.5071 68.506 55.4193 68.1004 55.4193C67.6947 55.4193 67.2938 55.5071 66.9247 55.6768C66.5939 55.8405 66.2983 56.0682 66.0549 56.347C65.809 56.6351 65.6187 56.967 65.4937 57.3255C65.2209 58.0209 65.2209 58.7949 65.4937 59.4903C65.6304 59.8433 65.8196 60.1732 66.0549 60.4688C66.2983 60.7476 66.5939 60.9753 66.9247 61.139C67.2939 61.3084 67.6947 61.3962 68.1004 61.3963C68.5066 61.402 68.9087 61.314 69.276 61.139C69.6068 60.9753 69.9024 60.7476 70.1459 60.4688C70.3756 60.1779 70.5489 59.8459 70.6565 59.4903C70.7543 59.1197 70.8057 58.7383 70.8094 58.3549V58.3563ZM80.6301 55.4194V59.9018C80.5942 60.337 80.7023 60.772 80.9373 61.139C81.0807 61.2896 81.2564 61.4051 81.451 61.4767C81.6455 61.5482 81.8537 61.574 82.0597 61.5519C82.2653 61.5605 82.4713 61.5434 82.6728 61.501C82.847 61.4641 83.0178 61.4126 83.1834 61.3468L83.2339 64.1748C82.5099 64.4162 81.7519 64.538 80.9892 64.5354C80.3281 64.5543 79.6692 64.4493 79.0461 64.2257C78.5597 64.0582 78.1197 63.7766 77.7624 63.4042C77.4319 63.0218 77.2031 62.561 77.0975 62.0652C76.973 61.5079 76.9044 60.9394 76.8926 60.3684V55.4194H75.0534V52.5321H76.894V49.4411H80.6259V52.5335H83.3349V55.4194H80.6301Z" fill="white"/>
</svg>
