<svg width="229" height="85" viewBox="0 0 229 85" fill="none" xmlns="http://www.w3.org/2000/svg">
<path d="M60.7373 0.000591406H5.52157C4.08015 -0.0194631 2.68878 0.471223 1.65337 1.36477C0.617952 2.25832 0.023247 3.48158 0 4.76563L0 33.3558C0.023247 34.6399 0.617952 35.8631 1.65337 36.7567C2.68878 37.6502 4.08015 38.1409 5.52157 38.1209H60.7373C62.1787 38.1409 63.5701 37.6502 64.6055 36.7567C65.6409 35.8631 66.2356 34.6399 66.2589 33.3558V4.76563C66.2356 3.48158 65.6409 2.25832 64.6055 1.36477C63.5701 0.471223 62.1787 -0.0194631 60.7373 0.000591406Z" fill="white"/>
<path d="M14.6688 13.3941C15.416 13.1462 16.2075 13.0588 16.9912 13.1375C17.7748 13.2162 18.5327 13.4593 19.2148 13.8507C19.8969 14.2421 20.4877 14.7729 20.9481 15.408C21.4084 16.0432 21.7279 16.7681 21.8854 17.535L25.7011 16.7619C25.4326 15.4588 24.8891 14.227 24.1064 13.148C23.3237 12.0689 22.3196 11.167 21.1605 10.5019C20.0013 9.83675 18.7134 9.42343 17.3817 9.28922C16.0501 9.15501 14.7049 9.30295 13.4349 9.72329L14.6688 13.3941Z" fill="#4D4D4D"/>
<path d="M10.1666 25.6783L12.7458 22.7807C12.1561 22.2616 11.684 21.6241 11.3607 20.9102C11.0374 20.1964 10.8702 19.4225 10.8702 18.6397C10.8702 17.8568 11.0374 17.0829 11.3607 16.3691C11.684 15.6553 12.1561 15.0178 12.7458 14.4987L10.1653 11.6011C9.16228 12.4829 8.35916 13.5664 7.80911 14.7798C7.25905 15.9932 6.97461 17.3088 6.97461 18.6397C6.97461 19.9705 7.25905 21.2862 7.80911 22.4996C8.35916 23.713 9.16228 24.7965 10.1653 25.6783H10.1666Z" fill="#4D4D4D"/>
<path d="M21.8842 19.749C21.7259 20.5155 21.4058 21.2399 20.945 21.8744C20.4842 22.5088 19.8932 23.039 19.211 23.4297C18.5289 23.8204 17.7711 24.0629 16.9877 24.1411C16.2042 24.2194 15.413 24.1315 14.6663 23.8834L13.431 27.5528C14.7003 27.9735 16.0449 28.122 17.3761 27.9885C18.7074 27.8551 19.995 27.4427 21.1542 26.7786C22.3133 26.1145 23.3177 25.2138 24.101 24.1358C24.8843 23.0579 25.4288 21.8271 25.6985 20.5248L21.8842 19.749Z" fill="#4D4D4D"/>
<path d="M38.4021 22.3408C37.8583 22.8744 37.1484 23.2087 36.3886 23.2891C35.6287 23.3695 34.8639 23.1912 34.2192 22.7834L32.9562 24.7827C34.0525 25.4698 35.3499 25.7694 36.6387 25.6331C37.9275 25.4969 39.1324 24.9328 40.0588 24.032L38.4021 22.3408Z" fill="#4D4D4D"/>
<path d="M36.1119 14.1959C35.0653 14.1805 34.0342 14.4482 33.1289 14.9704C32.2237 15.4925 31.4783 16.2495 30.9727 17.1602C30.467 18.0709 30.22 19.1012 30.2582 20.1406C30.2964 21.1801 30.6183 22.1897 31.1895 23.0614L41.6426 18.6214C41.3486 17.3769 40.6448 16.2655 39.6428 15.4638C38.6408 14.662 37.3981 14.2158 36.1119 14.1959ZM32.6474 20.2862C32.6315 20.1512 32.6249 20.0152 32.6275 19.8792C32.6382 19.1919 32.8598 18.5241 33.2626 17.9653C33.6655 17.4065 34.2304 16.9832 34.8819 16.7521C35.5334 16.5209 36.2404 16.4929 36.9083 16.6719C37.5762 16.8509 38.1732 17.2282 38.6195 17.7535L32.6474 20.2862Z" fill="#4D4D4D"/>
<path d="M44.9216 11.6107V22.6849L46.8553 23.4751L45.9408 25.6589L44.0283 24.8686C43.6439 24.7014 43.3165 24.4268 43.086 24.0783C42.8302 23.6662 42.7016 23.1886 42.7162 22.7046V11.6001L44.9216 11.6107Z" fill="#4D4D4D"/>
<path d="M51.8916 16.727C52.3476 16.5761 52.8306 16.5231 53.3088 16.5713C53.7869 16.6195 54.2493 16.768 54.6655 17.0068C55.0817 17.2457 55.4422 17.5695 55.7232 17.9569C56.0042 18.3443 56.1994 18.7866 56.2958 19.2545L58.6245 18.7829C58.4607 17.9876 58.1291 17.2358 57.6515 16.5771C57.174 15.9185 56.5612 15.368 55.8538 14.962C55.1464 14.556 54.3604 14.3037 53.5477 14.2217C52.7349 14.1398 51.9139 14.23 51.1389 14.4866L51.8916 16.727Z" fill="#4D4D4D"/>
<path d="M49.1442 24.2261L50.7173 22.4572C50.3573 22.1405 50.0691 21.7514 49.8717 21.3156C49.6743 20.8799 49.5722 20.4075 49.5722 19.9297C49.5722 19.4518 49.6743 18.9794 49.8717 18.5437C50.0691 18.108 50.3573 17.7189 50.7173 17.4022L49.1428 15.6333C48.5307 16.1715 48.0407 16.8328 47.705 17.5733C47.3694 18.3139 47.1958 19.1168 47.1958 19.929C47.1958 20.7412 47.3694 21.5442 47.705 22.2847C48.0407 23.0253 48.5307 23.6866 49.1428 24.2248L49.1442 24.2261Z" fill="#4D4D4D"/>
<path d="M56.2957 20.6079C56.199 21.0757 56.0036 21.5178 55.7224 21.905C55.4411 22.2923 55.0804 22.6157 54.6641 22.8542C54.2477 23.0927 53.7852 23.2408 53.3071 23.2885C52.8289 23.3363 52.346 23.2828 51.8902 23.1315L51.1361 25.3706C51.9109 25.6274 52.7316 25.7181 53.5442 25.6366C54.3568 25.5552 55.1428 25.3035 55.8504 24.8981C56.558 24.4928 57.1711 23.943 57.6492 23.285C58.1274 22.627 58.4598 21.8757 58.6244 21.0808L56.2957 20.6079Z" fill="#4D4D4D"/>
<path d="M60.7373 46.879H5.52157C4.08015 46.859 2.68878 47.3496 1.65337 48.2432C0.617952 49.1367 0.023247 50.36 0 51.644L0 80.2343C0.023247 81.5183 0.617952 82.7416 1.65337 83.6351C2.68878 84.5287 4.08015 85.0193 5.52157 84.9993H60.7373C62.1787 85.0193 63.5701 84.5287 64.6055 83.6351C65.6409 82.7416 66.2356 81.5183 66.2589 80.2343V51.644C66.2356 50.36 65.6409 49.1367 64.6055 48.2432C63.5701 47.3496 62.1787 46.859 60.7373 46.879Z" fill="white"/>
<path d="M142.108 0.000591406H86.8921C85.4507 -0.0194631 84.0593 0.471223 83.0239 1.36477C81.9885 2.25832 81.3938 3.48158 81.3705 4.76563V33.3558C81.3938 34.6399 81.9885 35.8631 83.0239 36.7567C84.0593 37.6502 85.4507 38.1409 86.8921 38.1209H142.108C143.549 38.1409 144.941 37.6502 145.976 36.7567C147.011 35.8631 147.606 34.6399 147.629 33.3558V4.76563C147.606 3.48158 147.011 2.25832 145.976 1.36477C144.941 0.471223 143.549 -0.0194631 142.108 0.000591406Z" fill="white"/>
<path d="M107.1 26.3353L109.579 11.7861H113.593L111.114 26.3353H107.1Z" fill="#4D4D4D"/>
<path d="M125.404 12.1624C124.608 11.8675 123.362 11.5518 121.805 11.5518C117.838 11.5518 115.044 13.5255 115.02 16.3533C114.998 18.4434 117.015 19.6093 118.538 20.3058C120.101 21.0175 120.626 21.4742 120.618 22.1103C120.609 23.0855 119.37 23.5313 118.216 23.5313C116.609 23.5308 115.756 23.3106 114.437 22.7677L113.92 22.5359L113.356 25.7929C114.294 26.1992 116.028 26.5515 117.828 26.5693C122.048 26.5684 124.788 24.619 124.819 21.5984C124.834 19.9435 123.764 18.6841 121.448 17.6454C120.045 16.9732 119.185 16.5243 119.195 15.842C119.195 15.2375 119.923 14.5908 121.494 14.5908C122.806 14.5705 123.758 14.8532 124.499 15.1481L124.858 15.3159L125.404 12.1624Z" fill="#4D4D4D"/>
<path d="M132.247 11.7861C131.286 11.7861 130.591 12.078 130.168 13.0252L124.219 26.3358H128.469L129.295 24.1063H134.373L134.845 26.3358H138.623L135.318 11.7865H132.248L132.247 11.7861ZM130.423 21.1951C130.755 20.3573 132.022 17.1286 132.022 17.1286C131.999 17.1668 132.352 16.2867 132.554 15.7406L132.826 16.9944C132.826 16.9944 133.594 20.4675 133.755 21.1955H130.423V21.1951Z" fill="#4D4D4D"/>
<path d="M99.7793 21.7594L99.4257 19.7648C98.6931 17.4398 96.4194 14.9241 93.8715 13.6637L97.4181 26.3353H101.669L108.044 11.7861H103.794L99.7793 21.7594Z" fill="#4D4D4D"/>
<path d="M89.5076 11.7861V12.0211C94.5445 13.225 98.0414 16.2685 99.4258 19.765L97.9703 13.0278C97.7274 12.1071 96.9911 11.8182 96.1198 11.7863L89.5076 11.7861Z" fill="#4D4D4D"/>
<path d="M142.108 46.879H86.8922C85.4508 46.859 84.0594 47.3496 83.024 48.2432C81.9886 49.1367 81.3939 50.36 81.3706 51.644V80.2343C81.3939 81.5183 81.9886 82.7416 83.024 83.6351C84.0594 84.5287 85.4508 85.0193 86.8922 84.9993H142.108C143.549 85.0193 144.941 84.5287 145.976 83.6351C147.012 82.7416 147.606 81.5183 147.629 80.2343V51.644C147.606 50.36 147.012 49.1367 145.976 48.2432C144.941 47.3496 143.549 46.859 142.108 46.879Z" fill="white"/>
<path d="M223.478 0.000591406H168.263C166.821 -0.0194631 165.43 0.471223 164.394 1.36477C163.359 2.25832 162.764 3.48158 162.741 4.76563V33.3558C162.764 34.6399 163.359 35.8631 164.394 36.7567C165.43 37.6502 166.821 38.1409 168.263 38.1209H223.478C224.92 38.1409 226.311 37.6502 227.347 36.7567C228.382 35.8631 228.977 34.6399 229 33.3558V4.76563C228.977 3.48158 228.382 2.25832 227.347 1.36477C226.311 0.471223 224.92 -0.0194631 223.478 0.000591406Z" fill="white"/>
<path d="M223.478 46.879H168.263C166.821 46.859 165.43 47.3496 164.394 48.2432C163.359 49.1367 162.764 50.36 162.741 51.644V80.2343C162.764 81.5183 163.359 82.7416 164.394 83.6351C165.43 84.5287 166.821 85.0193 168.263 84.9993H223.478C224.92 85.0193 226.311 84.5287 227.346 83.6351C228.382 82.7416 228.977 81.5183 229 80.2343V51.644C228.977 50.36 228.382 49.1367 227.346 48.2432C226.311 47.3496 224.92 46.859 223.478 46.879Z" fill="white"/>
<path d="M185.303 32.6315V30.8373C185.314 30.6864 185.292 30.535 185.239 30.3932C185.186 30.2514 185.103 30.1225 184.996 30.015C184.889 29.9075 184.76 29.8239 184.618 29.7697C184.476 29.7156 184.324 29.6922 184.172 29.701C183.973 29.6881 183.774 29.7284 183.596 29.8178C183.419 29.9072 183.268 30.0425 183.161 30.2094C183.063 30.0475 182.923 29.9148 182.756 29.8253C182.588 29.7358 182.4 29.6929 182.21 29.701C182.044 29.6927 181.88 29.7275 181.732 29.802C181.584 29.8765 181.458 29.988 181.367 30.1256V29.7728H180.742V32.6315H181.373V31.0586C181.36 30.9608 181.368 30.8613 181.398 30.7672C181.428 30.6731 181.478 30.5866 181.546 30.5141C181.613 30.4415 181.695 30.3846 181.787 30.3474C181.879 30.3103 181.978 30.2938 182.078 30.2991C182.493 30.2991 182.703 30.5682 182.703 31.0526V32.6435H183.335V31.0586C183.322 30.9609 183.331 30.8617 183.361 30.7678C183.391 30.6739 183.442 30.5877 183.509 30.5152C183.576 30.4428 183.658 30.3859 183.75 30.3485C183.842 30.3112 183.94 30.2943 184.039 30.2991C184.467 30.2991 184.671 30.5682 184.671 31.0526V32.6435L185.303 32.6315ZM194.652 29.7728H193.623V28.9056H192.991V29.7728H192.42V30.3409H193.003V31.6567C193.003 32.3205 193.262 32.7152 194.002 32.7152C194.279 32.7162 194.55 32.6394 194.785 32.4939L194.604 31.9617C194.436 32.0612 194.246 32.1167 194.051 32.1231C193.75 32.1231 193.635 31.9318 193.635 31.6447V30.3409H194.658L194.652 29.7728ZM199.99 29.701C199.838 29.6966 199.687 29.7331 199.553 29.8068C199.42 29.8804 199.309 29.9885 199.232 30.1197V29.7728H198.612V32.6315H199.238V31.0287C199.238 30.5562 199.443 30.2931 199.84 30.2931C199.974 30.2913 200.107 30.3157 200.231 30.3649L200.424 29.7668C200.281 29.716 200.13 29.6897 199.978 29.6891L199.99 29.701ZM191.92 30C191.566 29.7907 191.159 29.6869 190.747 29.701C190.018 29.701 189.543 30.0479 189.543 30.616C189.543 31.0825 189.892 31.3696 190.536 31.4593L190.837 31.5012C191.18 31.549 191.342 31.6387 191.342 31.8002C191.342 32.0215 191.114 32.1471 190.686 32.1471C190.343 32.157 190.006 32.0516 189.73 31.848L189.429 32.3325C189.793 32.5854 190.23 32.7154 190.674 32.7033C191.505 32.7033 191.986 32.3145 191.986 31.7703C191.986 31.2261 191.607 31.0048 190.981 30.9151L190.68 30.8732C190.41 30.8373 190.193 30.7835 190.193 30.5921C190.193 30.4007 190.398 30.2572 190.741 30.2572C191.058 30.2609 191.368 30.3453 191.643 30.5024L191.92 30ZM208.683 29.701C208.531 29.6966 208.38 29.7331 208.246 29.8068C208.113 29.8804 208.002 29.9885 207.925 30.1197V29.7728H207.305V32.6315H207.931V31.0287C207.931 30.5562 208.136 30.2931 208.533 30.2931C208.667 30.2913 208.8 30.3157 208.924 30.3649L209.117 29.7668C208.974 29.716 208.823 29.6897 208.671 29.6891L208.683 29.701ZM200.619 31.1962C200.612 31.3971 200.647 31.5973 200.722 31.784C200.796 31.9708 200.91 32.1399 201.054 32.2807C201.199 32.4214 201.371 32.5306 201.56 32.6013C201.75 32.672 201.952 32.7027 202.154 32.6913C202.53 32.7103 202.899 32.5887 203.189 32.3504L202.888 31.848C202.672 32.012 202.408 32.1022 202.136 32.1052C201.904 32.0866 201.689 31.9821 201.531 31.8126C201.374 31.643 201.287 31.4208 201.287 31.1902C201.287 30.9595 201.374 30.7373 201.531 30.5678C201.689 30.3982 201.904 30.2938 202.136 30.2752C202.408 30.2782 202.672 30.3684 202.888 30.5323L203.189 30.0299C202.899 29.7917 202.53 29.6701 202.154 29.6891C201.952 29.6777 201.75 29.7083 201.56 29.779C201.371 29.8498 201.199 29.959 201.054 30.0997C200.91 30.2404 200.796 30.4096 200.722 30.5963C200.647 30.7831 200.612 30.9833 200.619 31.1842V31.1962ZM206.481 31.1962V29.7728H205.855V30.1197C205.749 29.9837 205.611 29.8749 205.454 29.8021C205.297 29.7293 205.125 29.6947 204.952 29.701C204.553 29.701 204.171 29.8585 203.888 30.1389C203.606 30.4193 203.448 30.7996 203.448 31.1962C203.448 31.5927 203.606 31.973 203.888 32.2534C204.171 32.5338 204.553 32.6913 204.952 32.6913C205.125 32.6976 205.297 32.663 205.454 32.5902C205.611 32.5174 205.749 32.4086 205.855 32.2727V32.6195H206.481V31.1962ZM204.152 31.1962C204.162 31.0279 204.221 30.8662 204.322 30.731C204.424 30.5958 204.563 30.4929 204.722 30.4352C204.881 30.3774 205.054 30.3672 205.219 30.4058C205.384 30.4444 205.534 30.5302 205.651 30.6525C205.768 30.7749 205.846 30.9285 205.876 31.0944C205.906 31.2603 205.886 31.4313 205.82 31.5863C205.753 31.7414 205.642 31.8737 205.501 31.9669C205.36 32.0602 205.194 32.1103 205.024 32.1112C204.905 32.1127 204.787 32.0897 204.677 32.0436C204.568 31.9975 204.469 31.9293 204.387 31.8434C204.305 31.7574 204.242 31.6556 204.201 31.5442C204.161 31.4328 204.144 31.3143 204.152 31.1962ZM196.599 29.701C196.2 29.7066 195.82 29.8694 195.541 30.1537C195.263 30.4381 195.11 30.8206 195.116 31.2171C195.121 31.6136 195.285 31.9917 195.571 32.2682C195.857 32.5447 196.242 32.6969 196.641 32.6913C197.074 32.7134 197.5 32.5748 197.836 32.3026L197.535 31.8421C197.297 32.0314 197.003 32.1367 196.698 32.1411C196.492 32.1588 196.286 32.0956 196.125 31.9649C195.964 31.8342 195.861 31.6464 195.838 31.4414H197.974C197.974 31.3636 197.974 31.2859 197.974 31.2021C197.974 30.3051 197.415 29.707 196.608 29.707L196.599 29.701ZM196.599 30.2572C196.693 30.2552 196.786 30.2716 196.873 30.3054C196.961 30.3392 197.04 30.3897 197.108 30.4542C197.176 30.5186 197.23 30.5956 197.267 30.6809C197.305 30.7661 197.325 30.8579 197.327 30.951H195.823C195.834 30.759 195.92 30.5789 196.063 30.4492C196.206 30.3196 196.394 30.2507 196.587 30.2572H196.599ZM212.279 31.2021V28.6245H211.677V30.1197C211.571 29.9837 211.434 29.8749 211.277 29.8021C211.12 29.7293 210.948 29.6947 210.775 29.701C210.376 29.701 209.993 29.8585 209.711 30.1389C209.429 30.4193 209.27 30.7996 209.27 31.1962C209.27 31.5927 209.429 31.973 209.711 32.2534C209.993 32.5338 210.376 32.6913 210.775 32.6913C210.948 32.6976 211.12 32.663 211.277 32.5902C211.434 32.5174 211.571 32.4086 211.677 32.2727V32.6195H212.279V31.2021ZM213.323 32.2158C213.362 32.2154 213.401 32.2225 213.438 32.2368C213.472 32.2508 213.504 32.2711 213.531 32.2966C213.557 32.3224 213.579 32.3528 213.594 32.3863C213.609 32.4212 213.617 32.4589 213.617 32.4969C213.617 32.535 213.609 32.5727 213.594 32.6076C213.579 32.6411 213.557 32.6715 213.531 32.6973C213.504 32.7228 213.472 32.7431 213.438 32.7571C213.402 32.7729 213.363 32.781 213.323 32.781C213.266 32.7806 213.211 32.7641 213.163 32.7333C213.115 32.7026 213.077 32.659 213.053 32.6076C213.037 32.5726 213.03 32.535 213.03 32.4969C213.03 32.4589 213.037 32.4213 213.053 32.3863C213.068 32.3528 213.089 32.3224 213.116 32.2966C213.143 32.2711 213.174 32.2508 213.209 32.2368C213.248 32.2213 213.29 32.2142 213.332 32.2158H213.323ZM213.323 32.7212C213.353 32.7214 213.383 32.7153 213.411 32.7033C213.437 32.6918 213.46 32.6755 213.48 32.6554C213.517 32.6146 213.538 32.5613 213.538 32.5059C213.538 32.4505 213.517 32.3972 213.48 32.3564C213.46 32.3362 213.437 32.32 213.411 32.3085C213.383 32.2966 213.353 32.2905 213.323 32.2906C213.293 32.2908 213.264 32.2969 213.236 32.3085C213.209 32.3196 213.185 32.3358 213.164 32.3564C213.126 32.3972 213.105 32.4505 213.105 32.5059C213.105 32.5613 213.126 32.6146 213.164 32.6554C213.185 32.6759 213.209 32.6922 213.236 32.7033C213.266 32.7163 213.299 32.7224 213.332 32.7212H213.323ZM213.341 32.3654C213.37 32.364 213.397 32.3725 213.42 32.3893C213.429 32.3969 213.436 32.4065 213.441 32.4174C213.446 32.4284 213.448 32.4402 213.447 32.4521C213.447 32.462 213.446 32.4719 213.442 32.4812C213.438 32.4905 213.433 32.4989 213.426 32.5059C213.408 32.5216 213.386 32.5311 213.362 32.5328L213.45 32.6315H213.381L213.299 32.5328H213.272V32.6315H213.215V32.3684L213.341 32.3654ZM213.275 32.4162V32.488H213.341C213.353 32.4915 213.366 32.4915 213.378 32.488C213.38 32.4838 213.381 32.4792 213.381 32.4745C213.381 32.4698 213.38 32.4652 213.378 32.4611C213.38 32.4569 213.381 32.4523 213.381 32.4476C213.381 32.4429 213.38 32.4383 213.378 32.4341C213.366 32.4306 213.353 32.4306 213.341 32.4341L213.275 32.4162ZM209.965 31.2021C209.975 31.0339 210.035 30.8722 210.136 30.737C210.237 30.6017 210.376 30.4989 210.535 30.4411C210.695 30.3834 210.868 30.3732 211.033 30.4118C211.198 30.4504 211.348 30.5362 211.465 30.6585C211.581 30.7809 211.659 30.9345 211.689 31.1004C211.719 31.2663 211.7 31.4373 211.633 31.5923C211.567 31.7473 211.456 31.8796 211.314 31.9729C211.173 32.0661 211.008 32.1163 210.838 32.1172C210.719 32.1187 210.601 32.0956 210.491 32.0496C210.381 32.0035 210.282 31.9353 210.2 31.8494C210.118 31.7634 210.055 31.6616 210.015 31.5502C209.974 31.4388 209.957 31.3203 209.965 31.2021ZM188.833 31.2021V29.7728H188.207V30.1197C188.101 29.9837 187.963 29.8749 187.806 29.8021C187.649 29.7293 187.477 29.6947 187.304 29.701C186.905 29.701 186.523 29.8585 186.24 30.1389C185.958 30.4193 185.8 30.7996 185.8 31.1962C185.8 31.5927 185.958 31.973 186.24 32.2534C186.523 32.5338 186.905 32.6913 187.304 32.6913C187.477 32.6976 187.649 32.663 187.806 32.5902C187.963 32.5174 188.101 32.4086 188.207 32.2727V32.6195H188.833V31.2021ZM186.504 31.2021C186.514 31.0339 186.573 30.8722 186.674 30.737C186.776 30.6017 186.915 30.4989 187.074 30.4411C187.233 30.3834 187.406 30.3732 187.571 30.4118C187.736 30.4504 187.886 30.5362 188.003 30.6585C188.12 30.7809 188.198 30.9345 188.228 31.1004C188.258 31.2663 188.238 31.4373 188.172 31.5923C188.105 31.7473 187.994 31.8796 187.853 31.9729C187.712 32.0661 187.546 32.1163 187.376 32.1172C187.257 32.1195 187.138 32.0971 187.028 32.0514C186.917 32.0057 186.817 31.9376 186.735 31.8516C186.652 31.7656 186.588 31.6634 186.548 31.5516C186.507 31.4398 186.49 31.3208 186.498 31.2021H186.504Z" fill="#4D4D4D"/>
<path d="M191.763 24.8653V8.0373H201.141V24.8653H191.763Z" fill="#4D4D4D" stroke="white" stroke-width="0.1"/>
<path d="M192.214 16.4545C192.213 14.8088 192.588 13.1842 193.311 11.7039C194.016 10.262 195.033 8.99374 196.289 7.98993C194.726 6.79897 192.863 6.05777 190.903 5.84884C188.901 5.63538 186.878 5.98608 185.067 6.8608C183.256 7.73553 181.729 9.09897 180.661 10.7952C179.592 12.4914 179.026 14.4521 179.026 16.453C179.026 18.454 179.592 20.4146 180.661 22.1109C181.729 23.8071 183.256 25.1705 185.067 26.0453C186.878 26.92 188.901 27.2707 190.903 27.0572C192.863 26.8483 194.726 26.1071 196.289 24.9161C195.034 23.9126 194.017 22.6449 193.312 21.2036C192.588 19.7238 192.213 18.0998 192.214 16.4545ZM192.214 16.4545C192.214 16.4545 192.214 16.4545 192.214 16.4545L192.314 16.4545L192.214 16.4546C192.214 16.4546 192.214 16.4546 192.214 16.4545ZM196.452 24.917C196.425 24.8959 196.398 24.8747 196.371 24.8533L196.37 24.9802C196.397 24.9593 196.425 24.9382 196.452 24.917Z" fill="#4D4D4D" stroke="white" stroke-width="0.2"/>
<path d="M213.879 16.4528C213.879 18.4539 213.313 20.4147 212.244 22.111C211.176 23.8073 209.649 25.1707 207.837 26.0453C206.026 26.9199 204.003 27.2704 202 27.0566C200.04 26.8474 198.177 26.1058 196.614 24.9144C197.869 23.9101 198.886 22.642 199.591 21.2005C200.315 19.7207 200.691 18.0968 200.691 16.4513C200.691 14.8059 200.315 13.182 199.591 11.7022C198.886 10.2607 197.869 8.99262 196.614 7.98828C198.177 6.7969 200.04 6.05532 202 5.84607C204.003 5.63231 206.026 5.98278 207.837 6.85738C209.649 7.73198 211.176 9.0954 212.244 10.7917C213.313 12.488 213.879 14.4488 213.879 16.4499V16.4528Z" fill="#4D4D4D" stroke="white" stroke-width="0.2"/>
<path d="M212.944 23.1213V22.7744H213.086V22.7026H212.728V22.7744H212.881V23.1213H212.944ZM213.639 23.1213V22.7026H213.531L213.405 23.0017L213.278 22.7026H213.182V23.1213H213.26V22.8073L213.378 23.0794H213.459L213.576 22.8073V23.1243L213.639 23.1213Z" fill="#4D4D4D"/>
<path d="M21.8568 58.2485C21.2402 58.2485 20.7402 58.7453 20.7402 59.3581V72.6726C20.7402 73.2854 21.2401 73.7822 21.8568 73.7822C22.4734 73.7822 22.9733 73.2854 22.9733 72.6726V59.3581C22.9733 58.7454 22.4734 58.2485 21.8568 58.2485Z" fill="#4D4D4D"/>
<path d="M30.7888 58.2485C30.1722 58.2485 29.6722 58.7453 29.6722 59.3581V68.2344C29.6722 68.8472 30.1721 69.344 30.7888 69.344C31.4053 69.344 31.9053 68.8472 31.9053 68.2344V59.3581C31.9053 58.7454 31.4054 58.2485 30.7888 58.2485Z" fill="#4D4D4D"/>
<path d="M40.465 58.2485C39.8485 58.2485 39.3485 58.7453 39.3485 59.3581V68.2344C39.3485 68.8472 39.8484 69.344 40.465 69.344C41.0817 69.344 41.5816 68.8472 41.5816 68.2344V59.3581C41.5816 58.7454 41.0817 58.2485 40.465 58.2485Z" fill="#4D4D4D"/>
<path d="M44.931 58.2485C44.3144 58.2485 43.8145 58.7453 43.8145 59.3581V72.6726C43.8145 73.2854 44.3143 73.7822 44.931 73.7822C45.5476 73.7822 46.0475 73.2854 46.0475 72.6726V59.3581C46.0474 58.7454 45.5475 58.2485 44.931 58.2485Z" fill="#4D4D4D"/>
<path d="M30.7888 73.7821C31.4054 73.7821 31.9053 73.2854 31.9053 72.6726C31.9053 72.0598 31.4054 71.563 30.7888 71.563C30.1721 71.563 29.6722 72.0598 29.6722 72.6726C29.6722 73.2854 30.1721 73.7821 30.7888 73.7821Z" fill="#4D4D4D"/>
<path d="M35.2547 58.2485C34.6381 58.2485 34.1382 58.7453 34.1382 59.3581V68.2344C34.1382 68.8472 34.6381 69.344 35.2547 69.344C35.8713 69.344 36.3712 68.8472 36.3712 68.2344V59.3581C36.3712 58.7454 35.8713 58.2485 35.2547 58.2485Z" fill="#4D4D4D"/>
<path d="M35.2547 73.7821C35.8713 73.7821 36.3712 73.2854 36.3712 72.6726C36.3712 72.0598 35.8713 71.563 35.2547 71.563C34.6381 71.563 34.1382 72.0598 34.1382 72.6726C34.1382 73.2854 34.6381 73.7821 35.2547 73.7821Z" fill="#4D4D4D"/>
<path d="M26.3227 58.2485C25.7061 58.2485 25.2062 58.7453 25.2062 59.3581V68.2344C25.2062 68.8472 25.7061 69.344 26.3227 69.344C26.9393 69.344 27.4392 68.8472 27.4392 68.2344V59.3581C27.4392 58.7454 26.9393 58.2485 26.3227 58.2485Z" fill="#4D4D4D"/>
<path d="M26.3227 73.7821C26.9393 73.7821 27.4392 73.2854 27.4392 72.6726C27.4392 72.0598 26.9393 71.563 26.3227 71.563C25.7061 71.563 25.2062 72.0598 25.2062 72.6726C25.2062 73.2854 25.7061 73.7821 26.3227 73.7821Z" fill="#4D4D4D"/>
<path d="M40.465 73.7821C41.0817 73.7821 41.5816 73.2854 41.5816 72.6726C41.5816 72.0598 41.0817 71.563 40.465 71.563C39.8484 71.563 39.3485 72.0598 39.3485 72.6726C39.3485 73.2854 39.8484 73.7821 40.465 73.7821Z" fill="#4D4D4D"/>
<path d="M47.1639 53.8101H19.6237C17.7768 53.8101 16.2742 55.3033 16.2742 57.1387V74.8914C16.2742 76.7268 17.7768 78.22 19.6237 78.22H47.1639C49.0109 78.22 50.5134 76.7268 50.5134 74.8914V57.1387C50.5134 55.3033 49.0109 53.8101 47.1639 53.8101ZM48.2805 74.8914C48.2805 75.5032 47.7796 76.0009 47.1639 76.0009H19.6237C19.008 76.0009 18.5071 75.5032 18.5071 74.8914V57.1387C18.5071 56.5269 19.008 56.0291 19.6237 56.0291H47.1639C47.7796 56.0291 48.2805 56.5269 48.2805 57.1387V74.8914Z" fill="#4D4D4D"/>
<g clip-path="url(#clip0_4922_913)">
<path d="M97.2913 73.4334C101.429 73.4533 105.205 70.1095 105.205 66.0417C105.205 61.5937 101.429 58.5192 97.2913 58.5205H93.7308C89.5439 58.5192 86.0977 61.5945 86.0977 66.0417C86.0977 70.1105 89.5439 73.4533 93.7308 73.4334H97.2913Z" fill="#4D4D4D"/>
<path d="M95.3185 70.0017V61.9245C96.9665 62.5473 98.1364 64.1192 98.1392 65.9628C98.1364 67.8068 96.9665 69.3778 95.3185 70.0017ZM89.3563 65.9628C89.36 64.1203 90.5281 62.5493 92.1751 61.9247V70C90.5281 69.3759 89.36 67.8059 89.3563 65.9628ZM93.7471 59.136C89.9213 59.1373 86.8211 62.1925 86.8202 65.9628C86.8211 69.7328 89.9213 72.7874 93.7471 72.7885C97.5742 72.7874 100.675 69.7328 100.675 65.9628C100.675 62.1925 97.5742 59.1373 93.7471 59.136Z" fill="white"/>
<path d="M107.631 61.728C107.631 61.0227 107.258 61.069 106.9 61.0615V60.8577C107.21 60.8726 107.528 60.8726 107.839 60.8726C108.173 60.8726 108.627 60.8577 109.216 60.8577C111.277 60.8577 112.4 62.214 112.4 63.603C112.4 64.3795 111.938 66.3323 109.12 66.3323C108.715 66.3323 108.34 66.3168 107.966 66.3168C107.608 66.3168 107.258 66.3243 106.9 66.3323V66.1283C107.377 66.0811 107.608 66.0654 107.631 65.5321V61.728ZM108.411 65.4068C108.411 66.0106 108.85 66.0811 109.239 66.0811C110.959 66.0811 111.524 64.8027 111.524 63.634C111.524 62.1678 110.569 61.109 109.033 61.109C108.706 61.109 108.555 61.132 108.411 61.1404V65.4068ZM112.679 66.1285H112.83C113.052 66.1285 113.212 66.1285 113.212 65.8691V63.744C113.212 63.3992 113.093 63.3513 112.798 63.1953V63.0696C113.172 62.9592 113.618 62.811 113.649 62.7875C113.705 62.7561 113.753 62.7478 113.793 62.7478C113.832 62.7478 113.849 62.7949 113.849 62.8581V65.8691C113.849 66.1285 114.024 66.1285 114.247 66.1285H114.382V66.3325C114.111 66.3325 113.832 66.3168 113.546 66.3168C113.26 66.3168 112.973 66.3245 112.679 66.3325V66.1285ZM113.531 61.5402C113.323 61.5402 113.14 61.352 113.14 61.148C113.14 60.9517 113.332 60.7708 113.531 60.7708C113.737 60.7708 113.92 60.9362 113.92 61.148C113.92 61.3601 113.745 61.5402 113.531 61.5402ZM115.138 63.7908C115.138 63.5008 115.05 63.4227 114.677 63.2737V63.1246C115.019 63.015 115.345 62.9126 115.727 62.7478C115.751 62.7478 115.774 62.7638 115.774 62.8261V63.3361C116.229 63.015 116.619 62.7478 117.153 62.7478C117.829 62.7478 118.068 63.2341 118.068 63.846V65.8691C118.068 66.1285 118.243 66.1285 118.466 66.1285H118.609V66.3325C118.33 66.3325 118.051 66.3168 117.765 66.3168C117.479 66.3168 117.192 66.3245 116.905 66.3325V66.1285H117.049C117.272 66.1285 117.43 66.1285 117.43 65.8691V63.8384C117.43 63.3908 117.153 63.1716 116.699 63.1716C116.444 63.1716 116.038 63.3753 115.774 63.548V65.8691C115.774 66.1285 115.951 66.1285 116.174 66.1285H116.317V66.3325C116.038 66.3325 115.759 66.3168 115.472 66.3168C115.186 66.3168 114.899 66.3245 114.613 66.3325V66.1285H114.757C114.979 66.1285 115.138 66.1285 115.138 65.8691V63.7908ZM119.214 64.1679C119.198 64.2386 119.198 64.3559 119.214 64.6227C119.261 65.3676 119.748 65.9791 120.384 65.9791C120.822 65.9791 121.165 65.7437 121.459 65.4539L121.57 65.5638C121.204 66.0423 120.75 66.45 120.098 66.45C118.832 66.45 118.577 65.2419 118.577 64.7402C118.577 63.2028 119.628 62.7478 120.185 62.7478C120.83 62.7478 121.523 63.1476 121.53 63.979C121.53 64.0267 121.53 64.0732 121.523 64.1207L121.451 64.1679H119.214ZM120.623 63.9167C120.822 63.9167 120.845 63.8145 120.845 63.7205C120.845 63.3207 120.599 62.9991 120.153 62.9991C119.668 62.9991 119.333 63.3513 119.238 63.9167H120.623ZM121.714 66.1285H121.929C122.151 66.1285 122.31 66.1285 122.31 65.8691V63.6657C122.31 63.4227 122.016 63.3753 121.896 63.3126V63.1953C122.477 62.952 122.796 62.7478 122.869 62.7478C122.915 62.7478 122.939 62.7713 122.939 62.8501V63.5558H122.956C123.154 63.25 123.489 62.7478 123.975 62.7478C124.174 62.7478 124.428 62.8809 124.428 63.1634C124.428 63.3753 124.277 63.564 124.054 63.564C123.807 63.564 123.807 63.3753 123.528 63.3753C123.393 63.3753 122.947 63.5558 122.947 64.0267V65.8691C122.947 66.1285 123.106 66.1285 123.329 66.1285H123.775V66.3325C123.337 66.3245 123.004 66.3168 122.661 66.3168C122.335 66.3168 122 66.3245 121.714 66.3325V66.1285ZM124.778 65.2419C124.882 65.7594 125.2 66.199 125.781 66.199C126.25 66.199 126.425 65.9166 126.425 65.6423C126.425 64.7165 124.691 65.0144 124.691 63.752C124.691 63.3125 125.049 62.7478 125.925 62.7478C126.179 62.7478 126.521 62.8186 126.831 62.9756L126.888 63.775H126.704C126.625 63.2813 126.346 62.999 125.837 62.999C125.518 62.999 125.216 63.1793 125.216 63.5165C125.216 64.4347 127.063 64.1519 127.063 65.3831C127.063 65.9006 126.641 66.4502 125.693 66.4502C125.375 66.4502 125.001 66.3401 124.723 66.1835L124.635 65.2814L124.778 65.2419ZM134.25 62.2771H134.052C133.9 61.3601 133.24 60.991 132.348 60.991C131.433 60.991 130.103 61.5947 130.103 63.4769C130.103 65.0621 131.25 66.199 132.475 66.199C133.263 66.199 133.917 65.6658 134.076 64.8419L134.259 64.8889L134.076 66.0339C133.741 66.2385 132.842 66.45 132.316 66.45C130.454 66.45 129.276 65.2656 129.276 63.5008C129.276 61.8929 130.732 60.7396 132.293 60.7396C132.937 60.7396 133.558 60.9442 134.171 61.156L134.25 62.2771ZM134.538 66.1285H134.688C134.912 66.1285 135.071 66.1285 135.071 65.8691V61.5012C135.071 60.991 134.951 60.9753 134.649 60.8892V60.7637C134.967 60.6618 135.302 60.5207 135.469 60.4261C135.556 60.3795 135.62 60.3396 135.643 60.3396C135.692 60.3396 135.708 60.3871 135.708 60.45V65.8691C135.708 66.1285 135.883 66.1285 136.106 66.1285H136.24V66.3325C135.97 66.3325 135.692 66.3168 135.405 66.3168C135.119 66.3168 134.832 66.3245 134.538 66.3325V66.1285ZM139.648 65.9006C139.648 66.0423 139.736 66.0498 139.871 66.0498C139.967 66.0498 140.085 66.0423 140.189 66.0423V66.2073C139.847 66.2385 139.194 66.4032 139.043 66.4502L139.003 66.4265V65.7915C138.526 66.1757 138.159 66.4502 137.593 66.4502C137.164 66.4502 136.718 66.1757 136.718 65.5171V63.5088C136.718 63.3048 136.686 63.1086 136.241 63.0696V62.9204C136.528 62.9128 137.164 62.8658 137.268 62.8658C137.356 62.8658 137.356 62.9204 137.356 63.0931V65.1162C137.356 65.3519 137.356 66.0263 138.048 66.0263C138.319 66.0263 138.677 65.8224 139.011 65.5485V63.4378C139.011 63.2813 138.629 63.1953 138.343 63.1168V62.9756C139.058 62.9283 139.505 62.8658 139.584 62.8658C139.648 62.8658 139.648 62.9204 139.648 63.0072V65.9006ZM141.232 63.3126C141.55 63.046 141.98 62.7478 142.418 62.7478C143.342 62.7478 143.898 63.5405 143.898 64.395C143.898 65.4224 143.135 66.4502 141.996 66.4502C141.407 66.4502 141.097 66.2616 140.889 66.1757L140.651 66.3556L140.484 66.2696C140.555 65.807 140.595 65.3519 140.595 64.8736V61.5012C140.595 60.991 140.476 60.9753 140.173 60.8892V60.7637C140.492 60.6618 140.826 60.5207 140.993 60.4261C141.081 60.3795 141.144 60.3396 141.169 60.3396C141.216 60.3396 141.232 60.3871 141.232 60.45V63.3126ZM141.232 65.4457C141.232 65.7437 141.519 66.2463 142.052 66.2463C142.904 66.2463 143.262 65.4224 143.262 64.724C143.262 63.8772 142.61 63.1716 141.989 63.1716C141.693 63.1716 141.447 63.36 141.232 63.5405V65.4457ZM106.891 70.8925H106.952C107.107 70.8925 107.272 70.8717 107.272 70.6495V68.4139C107.272 68.1913 107.107 68.1701 106.952 68.1701H106.891V68.0421C107.06 68.0421 107.32 68.0588 107.532 68.0588C107.749 68.0588 108.008 68.0421 108.212 68.0421V68.1701H108.151C107.996 68.1701 107.831 68.1913 107.831 68.4139V70.6495C107.831 70.8717 107.996 70.8925 108.151 70.8925H108.212V71.0211C108.004 71.0211 107.743 71.0044 107.528 71.0044C107.315 71.0044 107.06 71.0211 106.891 71.0211V70.8925ZM111.187 70.1799L111.196 70.1715V68.5714C111.196 68.2213 110.949 68.1701 110.819 68.1701H110.724V68.0421C110.928 68.0421 111.127 68.059 111.33 68.059C111.508 68.059 111.686 68.0421 111.863 68.0421V68.1701H111.798C111.616 68.1701 111.412 68.2044 111.412 68.7121V70.6542C111.412 70.8034 111.417 70.9526 111.438 71.0849H111.274L109.043 68.635V70.3936C109.043 70.7648 109.116 70.8925 109.45 70.8925H109.524V71.0211C109.338 71.0211 109.152 71.0044 108.965 71.0044C108.771 71.0044 108.571 71.0211 108.376 71.0211V70.8925H108.437C108.736 70.8925 108.826 70.6923 108.826 70.3513V68.5538C108.826 68.3151 108.627 68.1701 108.433 68.1701H108.376V68.0421C108.541 68.0421 108.71 68.059 108.874 68.059C109.004 68.059 109.13 68.0421 109.26 68.0421L111.187 70.1799ZM112.512 68.2554C112.186 68.2554 112.174 68.3322 112.109 68.6434H111.979C111.996 68.5241 112.018 68.4047 112.031 68.2807C112.049 68.161 112.057 68.0421 112.057 67.9184H112.161C112.196 68.0466 112.304 68.0421 112.422 68.0421H114.656C114.773 68.0421 114.881 68.0379 114.89 67.9096L114.993 67.9268C114.977 68.0421 114.959 68.157 114.946 68.2725C114.938 68.3878 114.938 68.5031 114.938 68.6181L114.808 68.6654C114.799 68.5077 114.777 68.2554 114.487 68.2554H113.777V70.5258C113.777 70.855 113.929 70.8925 114.136 70.8925H114.218V71.0211C114.05 71.0211 113.746 71.0044 113.513 71.0044C113.253 71.0044 112.949 71.0211 112.78 71.0211V70.8925H112.863C113.102 70.8925 113.222 70.8716 113.222 70.5347V68.2554H112.512ZM115.132 70.8925H115.193C115.349 70.8925 115.513 70.8717 115.513 70.6495V68.4139C115.513 68.1913 115.349 68.1701 115.193 68.1701H115.132V68.0421C115.396 68.0421 115.847 68.0588 116.21 68.0588C116.575 68.0588 117.024 68.0421 117.319 68.0421C117.311 68.2253 117.316 68.5075 117.328 68.6951L117.198 68.7294C117.177 68.4521 117.125 68.2302 116.67 68.2302H116.068V69.348H116.583C116.843 69.348 116.9 69.2033 116.925 68.9724H117.055C117.046 69.1392 117.042 69.3055 117.042 69.4717C117.042 69.6343 117.046 69.7963 117.055 69.9584L116.925 69.9837C116.9 69.728 116.886 69.5615 116.587 69.5615H116.068V70.5557C116.068 70.8331 116.318 70.8331 116.596 70.8331C117.116 70.8331 117.345 70.7987 117.475 70.3129L117.596 70.3422C117.54 70.569 117.488 70.7945 117.45 71.0211C117.172 71.0211 116.674 71.0044 116.284 71.0044C115.894 71.0044 115.379 71.0211 115.132 71.0211V70.8925ZM118.181 68.4942C118.181 68.1829 118.008 68.1701 117.873 68.1701H117.795V68.0419C117.934 68.0419 118.202 68.059 118.467 68.059C118.726 68.059 118.934 68.0419 119.164 68.0419C119.709 68.0419 120.195 68.1869 120.195 68.7935C120.195 69.1769 119.935 69.4117 119.593 69.5447L120.333 70.6364C120.455 70.8169 120.541 70.8676 120.753 70.8923V71.0211C120.61 71.0211 120.472 71.0044 120.329 71.0044C120.195 71.0044 120.056 71.0211 119.922 71.0211C119.589 70.5901 119.302 70.1293 119.021 69.6378H118.736V70.5515C118.736 70.8805 118.891 70.8923 119.09 70.8923H119.168V71.0211C118.921 71.0211 118.67 71.0044 118.423 71.0044C118.215 71.0044 118.012 71.0211 117.795 71.0211V70.8923H117.873C118.034 70.8923 118.181 70.8207 118.181 70.6626V68.4942ZM118.736 69.484H118.947C119.381 69.484 119.614 69.3223 119.614 68.8184C119.614 68.4392 119.367 68.1958 118.981 68.1958C118.851 68.1958 118.796 68.2089 118.736 68.2127V69.484ZM123.694 70.1799L123.702 70.1715V68.5714C123.702 68.2213 123.455 68.1701 123.326 68.1701H123.231V68.0421C123.434 68.0421 123.633 68.059 123.837 68.059C124.015 68.059 124.191 68.0421 124.37 68.0421V68.1701H124.305C124.123 68.1701 123.919 68.2044 123.919 68.7121V70.6542C123.919 70.8034 123.923 70.9526 123.945 71.0849H123.781L121.55 68.635V70.3936C121.55 70.7648 121.624 70.8925 121.957 70.8925H122.031V71.0211C121.845 71.0211 121.658 71.0044 121.472 71.0044C121.277 71.0044 121.078 71.0211 120.883 71.0211V70.8925H120.943C121.242 70.8925 121.333 70.6923 121.333 70.3513V68.5538C121.333 68.3151 121.134 68.1701 120.939 68.1701H120.883V68.0421C121.047 68.0421 121.217 68.059 121.381 68.059C121.51 68.059 121.636 68.0421 121.767 68.0421L123.694 70.1799ZM125.067 70.4109C125.023 70.5557 124.971 70.6674 124.971 70.7435C124.971 70.8717 125.153 70.8925 125.295 70.8925H125.344V71.0211C125.17 71.0118 124.993 71.0045 124.819 71.0045C124.663 71.0045 124.508 71.0118 124.351 71.0211V70.8925H124.378C124.547 70.8925 124.69 70.7945 124.754 70.6149L125.448 68.6569C125.503 68.4989 125.582 68.2854 125.608 68.127C125.746 68.0807 125.92 67.9954 126.002 67.9441C126.015 67.9395 126.023 67.9351 126.036 67.9351C126.049 67.9351 126.057 67.9351 126.067 67.9483C126.08 67.9823 126.092 68.0208 126.106 68.0548L126.903 70.287C126.955 70.4362 127.006 70.5939 127.062 70.7226C127.115 70.8421 127.206 70.8925 127.349 70.8925H127.375V71.0211C127.18 71.0118 126.985 71.0045 126.777 71.0045C126.565 71.0045 126.348 71.0118 126.127 71.0211V70.8925H126.175C126.274 70.8925 126.444 70.8759 126.444 70.769C126.444 70.7138 126.405 70.5987 126.356 70.4617L126.188 69.9668H125.205L125.067 70.4109ZM125.699 68.5201H125.69L125.287 69.728H126.096L125.699 68.5201ZM127.566 68.2554C127.241 68.2554 127.228 68.3322 127.162 68.6434H127.032C127.049 68.5241 127.071 68.4047 127.085 68.2807C127.102 68.161 127.11 68.0421 127.11 67.9184H127.215C127.249 68.0466 127.358 68.0421 127.474 68.0421H129.71C129.826 68.0421 129.934 68.0379 129.943 67.9096L130.047 67.9268C130.03 68.0421 130.013 68.157 130 68.2725C129.99 68.3878 129.99 68.5031 129.99 68.6181L129.861 68.6654C129.853 68.5077 129.831 68.2554 129.541 68.2554H128.83V70.5258C128.83 70.855 128.982 70.8925 129.189 70.8925H129.272V71.0211C129.103 71.0211 128.8 71.0044 128.566 71.0044C128.306 71.0044 128.003 71.0211 127.834 71.0211V70.8925H127.916C128.155 70.8925 128.276 70.8716 128.276 70.5347V68.2554H127.566ZM130.206 70.8925H130.267C130.423 70.8925 130.587 70.8717 130.587 70.6495V68.4139C130.587 68.1913 130.423 68.1701 130.267 68.1701H130.206V68.0421C130.376 68.0421 130.635 68.0588 130.847 68.0588C131.064 68.0588 131.324 68.0421 131.528 68.0421V68.1701H131.467C131.311 68.1701 131.146 68.1913 131.146 68.4139V70.6495C131.146 70.8717 131.311 70.8925 131.467 70.8925H131.528V71.0211C131.32 71.0211 131.06 71.0044 130.844 71.0044C130.631 71.0044 130.376 71.0211 130.206 71.0211V70.8925ZM133.255 67.9783C134.179 67.9783 134.914 68.5419 134.914 69.4509C134.914 70.4326 134.2 71.0851 133.278 71.0851C132.359 71.0851 131.657 70.4706 131.657 69.5531C131.657 68.6656 132.355 67.9783 133.255 67.9783ZM133.321 70.8972C134.161 70.8972 134.307 70.167 134.307 69.5449C134.307 68.9208 133.966 68.1658 133.247 68.1658C132.489 68.1658 132.264 68.8317 132.264 69.403C132.264 70.167 132.619 70.8972 133.321 70.8972ZM137.833 70.1799L137.842 70.1715V68.5714C137.842 68.2213 137.594 68.1701 137.464 68.1701H137.371V68.0421C137.573 68.0421 137.773 68.059 137.976 68.059C138.154 68.059 138.332 68.0421 138.509 68.0421V68.1701H138.444C138.262 68.1701 138.058 68.2044 138.058 68.7121V70.6542C138.058 70.8034 138.063 70.9526 138.085 71.0849H137.92L135.689 68.635V70.3936C135.689 70.7648 135.763 70.8925 136.096 70.8925H136.17V71.0211C135.984 71.0211 135.798 71.0044 135.611 71.0044C135.417 71.0044 135.217 71.0211 135.022 71.0211V70.8925H135.083C135.382 70.8925 135.472 70.6923 135.472 70.3513V68.5538C135.472 68.3151 135.274 68.1701 135.078 68.1701H135.022V68.0421C135.187 68.0421 135.356 68.059 135.52 68.059C135.65 68.059 135.775 68.0421 135.905 68.0421L137.833 70.1799ZM139.205 70.4109C139.163 70.5557 139.11 70.6674 139.11 70.7435C139.11 70.8717 139.293 70.8925 139.435 70.8925H139.483V71.0211C139.31 71.0118 139.132 71.0045 138.959 71.0045C138.802 71.0045 138.647 71.0118 138.492 71.0211V70.8925H138.516C138.686 70.8925 138.829 70.7945 138.893 70.6149L139.587 68.6569C139.643 68.4989 139.722 68.2854 139.747 68.127C139.886 68.0807 140.059 67.9954 140.142 67.9441C140.154 67.9395 140.163 67.9351 140.176 67.9351C140.189 67.9351 140.197 67.9351 140.206 67.9483C140.219 67.9823 140.232 68.0208 140.245 68.0548L141.042 70.287C141.094 70.4362 141.145 70.5939 141.202 70.7226C141.254 70.8421 141.346 70.8925 141.488 70.8925H141.515V71.0211C141.319 71.0118 141.124 71.0045 140.916 71.0045C140.705 71.0045 140.488 71.0118 140.267 71.0211V70.8925H140.314C140.413 70.8925 140.583 70.8759 140.583 70.769C140.583 70.7138 140.544 70.5987 140.496 70.4617L140.328 69.9668H139.344L139.205 70.4109ZM139.838 68.5201H139.83L139.426 69.728H140.237L139.838 68.5201ZM142.606 70.6027C142.606 70.7737 142.726 70.8246 142.865 70.8421C143.043 70.855 143.238 70.855 143.437 70.8333C143.619 70.8118 143.775 70.7096 143.853 70.6027C143.922 70.5087 143.961 70.3894 143.987 70.2954H144.113C144.065 70.5386 144.004 70.7781 143.952 71.0211C143.572 71.0211 143.189 71.0045 142.809 71.0045C142.427 71.0045 142.047 71.0211 141.666 71.0211V70.8925H141.725C141.882 70.8925 142.051 70.8717 142.051 70.6069V68.4137C142.051 68.1913 141.882 68.1701 141.725 68.1701H141.666V68.0421C141.895 68.0421 142.12 68.059 142.349 68.059C142.571 68.059 142.787 68.0421 143.008 68.0421V68.1701H142.899C142.735 68.1701 142.606 68.1749 142.606 68.4006V70.6027Z" fill="#4D4D4D"/>
</g>
<path d="M172.408 61.0679H174.437L173.423 58.5024L172.408 61.0679Z" fill="#4D4D4D"/>
<path d="M183.195 69.6797V70.871H186.607V72.154H183.195V73.5287H186.975L188.727 71.6041L187.068 69.6797H183.195Z" fill="#4D4D4D"/>
<path d="M209.84 58.5024L208.733 61.0679H210.854L209.84 58.5024Z" fill="#4D4D4D"/>
<path d="M193.06 74.2604V69.0381L190.663 71.6037L193.06 74.2604Z" fill="#4D4D4D"/>
<path d="M197.578 70.5047C197.486 69.9549 197.117 69.6797 196.563 69.6797H194.627V71.3288H196.656C197.209 71.329 197.578 71.0543 197.578 70.5047Z" fill="#4D4D4D"/>
<path d="M204.031 71.1464C204.216 71.0546 204.308 70.7794 204.308 70.5051C204.4 70.1389 204.216 69.9554 204.031 69.8637C203.847 69.772 203.57 69.772 203.294 69.772H201.45V71.2381H203.294C203.57 71.2381 203.847 71.2381 204.031 71.1464Z" fill="#4D4D4D"/>
<path d="M217.307 56.1206V57.22L216.754 56.1206H212.421V57.22L211.868 56.1206H205.967C204.953 56.1206 204.123 56.304 203.386 56.6705V56.1206H199.237V56.2123V56.6705C198.777 56.3042 198.223 56.1206 197.486 56.1206H182.642L181.628 58.4112L180.614 56.1206H177.295H175.912V57.22L175.451 56.1206H175.359H171.394L169.55 60.4267L167.43 65.0993L167.391 65.1911H167.43H172.132H172.191L172.224 65.0993L172.778 63.7253H173.976L174.529 65.1911H179.876V65.0993V64.0917L180.337 65.191H183.011L183.472 64.0917V65.0993V65.1911H185.592H196.195H196.287V62.8088H196.472C196.656 62.8088 196.656 62.8088 196.656 63.0838V65.0994H203.294V64.5497C203.847 64.825 204.676 65.0994 205.783 65.0994H208.549L209.102 63.6338H210.393L210.946 65.0994H216.293V64.1834V63.7254L217.123 65.0994H217.307H217.4H221.456V56.1206H217.307H217.307ZM186.053 63.8171H185.131H184.578V63.2678V58.7778L184.486 58.9879V58.9854L182.341 63.8171H182.273H181.78H180.982L178.77 58.7778V63.8171H175.635L174.99 62.4428H171.855L171.21 63.8171H169.589L172.316 57.4035H174.621L177.202 63.542V57.4035H177.755H179.645L179.688 57.4953H179.692L180.855 60.0112L181.69 61.8962L181.72 61.8012L183.564 57.4036H186.053V63.8171H186.053ZM192.415 58.7778H188.819V59.9688H192.323V61.2514H188.819V62.5345H192.415V63.9084H187.252V57.4036H192.415V58.7778ZM198.991 61.1403C198.993 61.1424 198.996 61.1439 198.999 61.1458C199.034 61.1825 199.064 61.2192 199.089 61.2544C199.266 61.4845 199.409 61.8267 199.416 62.3284C199.416 62.3371 199.417 62.3457 199.417 62.3544C199.417 62.3594 199.418 62.3637 199.418 62.3689C199.418 62.3718 199.418 62.374 199.418 62.3768C199.42 62.4272 199.421 62.4788 199.421 62.5345V63.8172H198.039V63.084C198.039 62.7175 198.039 62.1677 197.762 61.8012C197.675 61.7147 197.587 61.6576 197.491 61.617C197.352 61.5281 197.091 61.5266 196.656 61.5266H194.996V63.8172H193.429V57.4036H196.933C197.762 57.4036 198.315 57.4036 198.776 57.6785C199.228 57.948 199.501 58.3951 199.511 59.1031C199.49 60.0781 198.86 60.6131 198.407 60.7935C198.407 60.7935 198.715 60.855 198.991 61.1403ZM202.095 63.8171H200.528V57.4035H202.095V63.8171ZM220.074 63.8171H218.045L215.095 58.9609V62.9922L215.085 62.9828V63.821H213.528V63.8172H211.96L211.407 62.4429H208.18L207.627 63.9085H205.875C205.138 63.9085 204.215 63.7255 203.662 63.1758C203.109 62.6261 202.833 61.8931 202.833 60.7022C202.833 59.786 203.017 58.8692 203.662 58.1365C204.123 57.5864 204.953 57.4036 205.967 57.4036H207.443V58.7778H205.967C205.414 58.7778 205.138 58.8691 204.768 59.1445C204.492 59.4192 204.308 59.9688 204.308 60.6101C204.308 61.3432 204.4 61.8012 204.768 62.1677C205.046 62.4429 205.414 62.5346 205.875 62.5346H206.52L208.641 57.4956H209.563H210.946L213.527 63.6341V63.321V61.2516V61.0686V57.4957H215.832L218.505 61.9849V57.4957H220.073V63.8174H220.074V63.8171Z" fill="#4D4D4D"/>
<path d="M197.676 60.0738C197.703 60.0452 197.727 60.0128 197.748 59.9756C197.832 59.8443 197.927 59.6076 197.876 59.2847C197.874 59.255 197.868 59.2276 197.862 59.2011C197.86 59.1938 197.86 59.1873 197.858 59.1799L197.858 59.1801C197.812 59.0231 197.695 58.9267 197.578 58.8682C197.393 58.7769 197.116 58.7769 196.84 58.7769H194.996V60.243H196.84C197.116 60.243 197.393 60.243 197.578 60.1512C197.605 60.1372 197.63 60.1182 197.654 60.0967L197.654 60.0979C197.654 60.0978 197.664 60.088 197.676 60.0738Z" fill="#4D4D4D"/>
<path d="M225.513 72.979C225.513 72.3377 225.329 71.6961 225.052 71.2381V67.1154H225.048V66.8401C225.048 66.8401 221.184 66.8401 220.608 66.8401C220.033 66.8401 219.336 67.3897 219.336 67.3897V66.8401H215.095C214.449 66.8401 213.62 67.0235 213.251 67.3897V66.8401H205.691V67.1154V67.3896C205.138 66.9318 204.123 66.84 203.663 66.84H198.684V67.1152V67.3894C198.223 66.9317 197.116 66.8398 196.563 66.8398H191.032L189.741 68.2143L188.542 66.8398H188.156H187.528H180.245V67.1151V67.8389V76.094H188.358L189.691 74.7689L190.847 76.094H190.939H195.614H195.826H195.918H196.01V75.1779V73.9869H196.472C197.116 73.9869 197.946 73.9869 198.592 73.7116V76.0019V76.1856H202.741V76.0019V73.8033H202.925C203.202 73.8033 203.202 73.8033 203.202 74.0782V76.0019V76.1856H215.74C216.57 76.1856 217.399 76.0019 217.86 75.6355V76.0019V76.1856H221.825C222.654 76.1856 223.484 76.094 224.038 75.7273C224.887 75.2212 225.422 74.3254 225.501 73.2569C225.505 73.2253 225.509 73.1936 225.512 73.1619L225.507 73.1568C225.51 73.0975 225.513 73.0388 225.513 72.979ZM196.472 72.4294H194.627V72.7036V73.2536V73.8035V74.8113H191.597L189.833 72.7955L189.827 72.8022L189.741 72.7036L187.713 74.8113H181.812V68.398H187.805L189.442 70.1801L189.786 70.5532L189.833 70.5051L191.769 68.3981H196.656C197.604 68.3981 198.666 68.6307 199.068 69.5895C199.117 69.7794 199.145 69.9905 199.145 70.2303C199.145 72.0626 197.854 72.4294 196.472 72.4294ZM205.691 72.3376C205.875 72.6118 205.967 72.9789 205.967 73.5289V74.8112H204.4V73.9869C204.4 73.6198 204.4 72.9789 204.123 72.7036C203.94 72.4294 203.57 72.4294 203.017 72.4294H201.358V74.8113H199.791V68.3062H203.294C204.031 68.3062 204.676 68.3062 205.138 68.5808C205.599 68.856 205.967 69.3141 205.967 70.0471C205.967 71.0547 205.322 71.6044 204.861 71.788C205.322 71.9705 205.599 72.1543 205.691 72.3376ZM212.053 69.68H208.457V70.8712H211.96V72.1542H208.457V73.437H212.053V74.8112H206.89V68.3061H212.053V69.68ZM215.925 74.8113H212.974V73.4371H215.925C216.201 73.4371 216.385 73.4371 216.57 73.2537C216.663 73.1619 216.754 72.979 216.754 72.7956C216.754 72.6119 216.663 72.4295 216.57 72.3377C216.478 72.2461 216.293 72.1544 216.017 72.1544C214.541 72.0627 212.79 72.1544 212.79 70.139C212.79 69.2227 213.343 68.2147 215.003 68.2147H218.045V69.772H215.187C214.911 69.772 214.726 69.772 214.541 69.8637C214.357 69.9555 214.357 70.139 214.357 70.322C214.357 70.597 214.541 70.6887 214.726 70.7796C214.911 70.8714 215.095 70.8714 215.279 70.8714H216.109C216.939 70.8714 217.492 71.0547 217.86 71.4213C218.137 71.6963 218.322 72.1544 218.322 72.7956C218.322 74.1695 217.492 74.8113 215.925 74.8113ZM223.853 74.1695C223.485 74.5365 222.839 74.8113 221.917 74.8113H218.967V73.4371H221.917C222.194 73.4371 222.378 73.4371 222.563 73.2537C222.654 73.1619 222.747 72.979 222.747 72.7956C222.747 72.6119 222.654 72.4295 222.563 72.3377C222.47 72.2461 222.286 72.1544 222.009 72.1544C220.535 72.0627 218.783 72.1544 218.783 70.1391C218.783 69.2683 219.284 68.4816 220.52 68.248C220.668 68.2277 220.824 68.2147 220.995 68.2147H224.038V69.772H222.009H221.272H221.18C220.903 69.772 220.719 69.772 220.535 69.8637C220.442 69.9555 220.35 70.139 220.35 70.322C220.35 70.597 220.442 70.6887 220.719 70.7796C220.903 70.8714 221.088 70.8714 221.272 70.8714H221.364H222.102C222.505 70.8714 222.809 70.9208 223.088 71.0182C223.343 71.1101 224.189 71.4858 224.378 72.4668C224.394 72.5696 224.406 72.6769 224.406 72.7956C224.406 73.3454 224.222 73.8035 223.853 74.1695Z" fill="#4D4D4D"/>
<defs>
<clipPath id="clip0_4922_913">
<rect width="58.1218" height="15.0175" fill="white" transform="translate(86.0203 58.4307)"/>
</clipPath>
</defs>
</svg>
