<svg width="130" height="22" viewBox="0 0 130 22" fill="none" xmlns="http://www.w3.org/2000/svg">
<g clip-path="url(#clip0_4922_875)">
<path d="M129.513 5.43485L129.54 5.61451C129.274 4.67126 128.556 3.94343 127.643 3.67851L127.624 3.67393C125.907 3.20826 118.999 3.20826 118.999 3.20826C118.999 3.20826 112.109 3.1991 110.375 3.67393C109.444 3.94343 108.725 4.67126 108.464 5.59526L108.459 5.61451C107.818 8.96126 107.813 12.9827 108.487 16.5659L108.459 16.3844C108.725 17.3277 109.444 18.0555 110.356 18.3204L110.376 18.325C112.09 18.7916 119 18.7916 119 18.7916C119 18.7916 125.89 18.7916 127.625 18.325C128.556 18.0555 129.275 17.3277 129.537 16.4037L129.541 16.3844C129.833 14.8279 130 13.0368 130 11.2071C130 11.1402 130 11.0723 129.999 11.0045C130 10.9422 130 10.8679 130 10.7937C130 8.9631 129.833 7.17193 129.513 5.43485ZM116.795 14.3467V7.66143L122.544 11.0091L116.795 14.3467Z" fill="white"/>
</g>
<g clip-path="url(#clip1_4922_875)">
<path d="M64.4877 5.35156C61.3655 5.35156 58.8378 7.87973 58.8378 10.9964C58.8378 14.1158 61.3682 16.6412 64.4877 16.6412C67.61 16.6412 70.1377 14.1131 70.1377 10.9964C70.1377 7.87698 67.6072 5.35156 64.4877 5.35156ZM64.4877 14.6603C62.461 14.6603 60.8205 13.0204 60.8205 10.9964C60.8205 8.9724 62.4619 7.33248 64.4877 7.33248C66.5136 7.33248 68.155 8.9724 68.155 10.9964C68.1559 13.0204 66.5145 14.6603 64.4877 14.6603Z" fill="white"/>
<path d="M69.0224 0.0708134C66.9966 -0.0236032 61.9788 -0.0190199 59.9511 0.0708134C58.1693 0.15423 56.5977 0.584147 55.3306 1.85006C53.213 3.96573 53.4837 6.81656 53.4837 10.9975C53.4837 15.2765 53.2451 18.0613 55.3306 20.1449C57.4564 22.2679 60.3511 21.9901 64.4863 21.9901C68.7288 21.9901 70.1931 21.9929 71.6932 21.4126C73.7328 20.6216 75.2724 18.8001 75.4228 15.5286C75.5183 13.5036 75.5128 8.49131 75.4228 6.46548C75.2412 2.60356 73.1667 0.26148 69.0224 0.0708134ZM72.229 18.7451C70.8409 20.1321 68.915 20.0083 64.4597 20.0083C59.8722 20.0083 58.0326 20.0761 56.6903 18.7314C55.1443 17.1941 55.4242 14.7256 55.4242 10.9828C55.4242 5.91823 54.904 2.27081 59.9915 2.01048C61.1604 1.96923 61.5044 1.95548 64.4468 1.95548L64.4881 1.98298C69.3775 1.98298 73.2135 1.47148 73.4438 6.55348C73.4961 7.71306 73.508 8.0614 73.508 10.9966C73.5071 15.5267 73.5934 17.3756 72.229 18.7451Z" fill="white"/>
<path d="M70.3608 6.44774C71.0901 6.44774 71.6813 5.85716 71.6813 5.12865C71.6813 4.40014 71.0901 3.80957 70.3608 3.80957C69.6315 3.80957 69.0403 4.40014 69.0403 5.12865C69.0403 5.85716 69.6315 6.44774 70.3608 6.44774Z" fill="white"/>
</g>
<g clip-path="url(#clip2_4922_875)">
<path d="M14.3167 3.56319H16.2775V0.151111C15.9392 0.104616 14.7758 0 13.4208 0C10.5936 0 8.65694 1.77668 8.65694 5.04211V8.04735H5.53711V11.8618H8.65694V21.4596H12.482V11.8627H15.4756L15.9509 8.04825H12.4811V5.42034C12.482 4.31785 12.7791 3.56319 14.3167 3.56319Z" fill="white"/>
</g>
<defs>
<clipPath id="clip0_4922_875">
<rect width="22.0199" height="22" fill="white" transform="translate(107.98)"/>
</clipPath>
<clipPath id="clip1_4922_875">
<rect width="22.0199" height="22" fill="white" transform="translate(53.4731)"/>
</clipPath>
<clipPath id="clip2_4922_875">
<rect width="21.479" height="21.4596" fill="white"/>
</clipPath>
</defs>
</svg>
